# xmcd CD database file
#
# Track frame offsets:
#	183
#	12948
#	26368
#	39688
#	53540
#	66248
#	79180
#	91010
#	102848
#	116135
#	127798
#	140483
#	152915
#	166875
#	180828
#	195030
#	210188
#	225795
#	240215
#	254455
#	266805
#	283188
#	296265
#
# Disc length: 4127 seconds
#
# Revision: 0
# Processed by: cddbd v1.5.2PL0 Copyright (c) Steve Scherf et al.
# Submitted via: CDex 1.70beta2
#
DISCID=1d101d17
DTITLE=Louis Armstrong - Louis Armstrong plus The Big Bands Great Alternatives 1926-29
DYEAR=1993
DGENRE=Jazz
TTITLE0=Erskine Tate's Vendome Orchestra - Static Strut (Yellen-Wall)
TTITLE1=Erskine Tate's Vendome Orchestra - Stomp Off, Let's Go (Schoebel)
TTITLE2=Erskine Tate's Vendome Orchestra - Stomp Off, Let's Go (Schoebel)
TTITLE3=Lil's Hot Shots - Georgia Bo Bo (Trent-Waller)
TTITLE4=Lil's Hot Shots - Drop That Sack (Armstrong)
TTITLE5=Lil's Hot Shots - Drop That Sack (Armstrong)
TTITLE6=Jimmy Bertrand's Washboard Wizards - Easy Come Easy Go Blues (Bergers)
TTITLE7=Jimmy Bertrand's Washboard Wizards - The Blues Stampede (Mills)
TTITLE8=Jimmy Bertrand's Washboard Wizards - I'm Goin' Huntin' (Waller-Johnson)
TTITLE9=Jimmy Bertrand's Washboard Wizards - If You Wanna Be My Sugar Papa (Wayne-Mills-Schaffer)
TTITLE10=Johnny Dodds' Black Bottom Stompers - Weary Blues (Matthews)
TTITLE11=Johnny Dodds' Black Bottom Stompers - New Orleans Stomp (Hardin-Armstrong)
TTITLE12=Johnny Dodds' Black Bottom Stompers - Wild Man Blues (Morton-Armstrong)
TTITLE13=Johnny Dodds' Black Bottom Stompers - Wild Man Blues (Morton-Armstrong)
TTITLE14=Johnny Dodds' Black Bottom Stompers - Melancholy (Bloom-Melrose)
TTITLE15=Johnny Dodds' Black Bottom Stompers - Melancholy (Bloom-Melrose)
TTITLE16=Louis Armstrong And His Stompers - Chicago Breakdown (Morton)
TTITLE17=Carroll Dickerson's Savoyagers - Symphonic Raps (Stevens-Abraham)
TTITLE18=Carroll Dickerson's Savoyagers - Savoyagers Stomp (Armstrong-Hines)
TTITLE19=Louis Armstrong - Earl Hines - Weather Bird (Oliver)
TTITLE20=Louis Armstrong And His Savoy Ballroom Five - I Can't Give You Anything But Love (Fields-McHugh)
TTITLE21=Louis Armstrong And His Orchestra - Some Of These Days (Shelton-Brooks)
TTITLE22=Louis Armstrong And His Orchestra - When You're Smiling (Shay-Fisher-Goodwin)
EXTD=YEAR: 1993
EXTT0=
EXTT1=
EXTT2=
EXTT3=
EXTT4=
EXTT5=
EXTT6=
EXTT7=
EXTT8=
EXTT9=
EXTT10=
EXTT11=
EXTT12=
EXTT13=
EXTT14=
EXTT15=
EXTT16=
EXTT17=
EXTT18=
EXTT19=
EXTT20=
EXTT21=
EXTT22=
PLAYORDER=
